<svg width="158" height="197" viewBox="0 0 158 197" fill="none" xmlns="http://www.w3.org/2000/svg">
<path d="M79 196C42 196 1 188.956 1 181V37C1 27 25 17.989 51 16V10C51 9 59 6 79 6" stroke="white" stroke-width="2" stroke-linecap="round" stroke-linejoin="round"/>
<path d="M51 16C51 17 59 20 79 20" stroke="white" stroke-linecap="round" stroke-linejoin="round"/>
<path d="M1 38C1 40 23 46 79 46" stroke="white" stroke-linecap="round" stroke-linejoin="round"/>
<path d="M51 10C51 11 59 14 79 14" stroke="white" stroke-linecap="round" stroke-linejoin="round"/>
<path d="M79 196C116 196 157 188.956 157 181V37C157 27 133 17.989 107 16V10C107 9 99 6 79 6" stroke="white" stroke-width="2" stroke-linecap="round" stroke-linejoin="round"/>
<path d="M107 16C107 17 99 20 79 20" stroke="white" stroke-linecap="round" stroke-linejoin="round"/>
<path d="M157 38C157 40 135 46 79 46" stroke="white" stroke-linecap="round" stroke-linejoin="round"/>
<path d="M107 10C107 11 99 14 79 14" stroke="white" stroke-linecap="round" stroke-linejoin="round"/>
<path d="M69 9V2C69 1.44772 69.4477 1 70 1H88C88.5523 1 89 1.44772 89 2V9" stroke="white" stroke-width="2" stroke-linecap="round" stroke-linejoin="round"/>
</svg>
